<mxfile host="app.diagrams.net" agent="Mozilla/5.0 (X11; Ubuntu; Linux x86_64; rv:134.0) Gecko/20100101 Firefox/134.0" version="26.0.10">
  <diagram name="Page-1" id="5-D5NbdbSCTW88hmRJgN">
    <mxGraphModel>
      <root>
        <mxCell id="0" />
        <mxCell id="1" parent="0" />
        <mxCell id="2" value="Stage 2: Classification" style="whiteSpace=wrap;strokeWidth=2;verticalAlign=top;" vertex="1" parent="1">
          <mxGeometry x="8" y="8" width="992" height="129" as="geometry" />
        </mxCell>
        <mxCell id="3" value="Fully Connected Layers" style="whiteSpace=wrap;strokeWidth=2;" vertex="1" parent="2">
          <mxGeometry x="43" y="46" width="228" height="54" as="geometry" />
        </mxCell>
        <mxCell id="4" value="Activation Function" style="whiteSpace=wrap;strokeWidth=2;" vertex="1" parent="2">
          <mxGeometry x="321" y="46" width="195" height="54" as="geometry" />
        </mxCell>
        <mxCell id="5" value="Softmax Output" style="whiteSpace=wrap;strokeWidth=2;" vertex="1" parent="2">
          <mxGeometry x="566" y="46" width="171" height="54" as="geometry" />
        </mxCell>
        <mxCell id="6" value="Loss Calculation" style="whiteSpace=wrap;strokeWidth=2;" vertex="1" parent="2">
          <mxGeometry x="787" y="46" width="177" height="54" as="geometry" />
        </mxCell>
        <mxCell id="7" value="Stage 1: Segmentation" style="whiteSpace=wrap;strokeWidth=2;verticalAlign=top;" vertex="1" parent="1">
          <mxGeometry x="20" y="187" width="968" height="129" as="geometry" />
        </mxCell>
        <mxCell id="8" value="Convolutional Layers" style="whiteSpace=wrap;strokeWidth=2;" vertex="1" parent="7">
          <mxGeometry x="43" y="46" width="209" height="54" as="geometry" />
        </mxCell>
        <mxCell id="9" value="Pooling Layers" style="whiteSpace=wrap;strokeWidth=2;" vertex="1" parent="7">
          <mxGeometry x="302" y="46" width="166" height="54" as="geometry" />
        </mxCell>
        <mxCell id="10" value="Activation Function" style="whiteSpace=wrap;strokeWidth=2;" vertex="1" parent="7">
          <mxGeometry x="518" y="46" width="195" height="54" as="geometry" />
        </mxCell>
        <mxCell id="11" value="Loss Calculation" style="whiteSpace=wrap;strokeWidth=2;" vertex="1" parent="7">
          <mxGeometry x="763" y="46" width="177" height="54" as="geometry" />
        </mxCell>
        <mxCell id="12" value="Input Image" style="whiteSpace=wrap;strokeWidth=2;verticalAlign=top;" vertex="1" parent="1">
          <mxGeometry x="59" y="366" width="890" height="129" as="geometry" />
        </mxCell>
        <mxCell id="13" value="Preprocessing" style="whiteSpace=wrap;strokeWidth=2;" vertex="1" parent="12">
          <mxGeometry x="43" y="46" width="162" height="54" as="geometry" />
        </mxCell>
        <mxCell id="14" value="Feature Extraction" style="whiteSpace=wrap;strokeWidth=2;" vertex="1" parent="12">
          <mxGeometry x="255" y="46" width="191" height="54" as="geometry" />
        </mxCell>
        <mxCell id="15" value="Normalization" style="whiteSpace=wrap;strokeWidth=2;" vertex="1" parent="12">
          <mxGeometry x="496" y="46" width="158" height="54" as="geometry" />
        </mxCell>
        <mxCell id="16" value="Augmentation" style="whiteSpace=wrap;strokeWidth=2;" vertex="1" parent="12">
          <mxGeometry x="704" y="46" width="159" height="54" as="geometry" />
        </mxCell>
      </root>
    </mxGraphModel>
  </diagram>
</mxfile>
